<?xml version="1.0" encoding="utf-8"?>
<!-- Generator: Adobe Illustrator 22.1.0, SVG Export Plug-In . SVG Version: 6.00 Build 0)  -->
<svg version="1.1" id="Layer_1" xmlns="http://www.w3.org/2000/svg" xmlns:xlink="http://www.w3.org/1999/xlink" x="0px" y="0px"
	 viewBox="0 0 32 32" style="enable-background:new 0 0 32 32;" xml:space="preserve">
<style type="text/css">
	.st0{fill:#020202;}
	.st1{fill:#010101;}
</style>
<path class="st0" d="M0.7,29.3c0-7.8,0-15.7,0-23.5c0,0,0,0,0.1,0C2,5.5,3.1,5.2,4.3,4.9c1.8-0.4,3.5-0.8,5.3-1.2
	c2.1-0.5,4.2-1,6.2-1.4c0.1,0,0.2,0,0.2,0c0.1,0,0.3,0.1,0.4,0.1c1.6,0.4,3.2,0.7,4.7,1.1c1.8,0.4,3.6,0.8,5.3,1.2
	c1.5,0.4,3,0.7,4.6,1.1c0.1,0,0.1,0.1,0.1,0.2c0,7.7,0,15.5,0,23.2c0,0.1,0,0.1-0.1,0.1c-10.1,0-20.2,0-30.3,0
	C0.8,29.2,0.8,29.2,0.7,29.3z M28.9,17.3c0-3.2,0-6.4,0-9.5c0-0.1,0-0.1-0.1-0.1c-1.1-0.2-2.2-0.5-3.2-0.7c-1.7-0.4-3.3-0.8-5-1.1
	c-1.5-0.3-2.9-0.7-4.4-1c-0.1,0-0.2-0.1-0.3,0c-0.9,0.2-1.8,0.4-2.6,0.6C11.9,5.6,10.4,6,9,6.3C7,6.7,5.1,7.2,3.2,7.6
	c-0.1,0-0.1,0.1-0.1,0.1c0,6.3,0,12.7,0,19c0,0.1,0,0.1,0.1,0.1c3.5,0,6.9,0,10.4,0c0.1,0,0.1,0,0.1-0.1c0-1.9,0-3.8,0-5.6
	c0-0.1,0-0.1,0.1-0.1c1.5,0,3,0,4.5,0c0.1,0,0.1,0,0.1,0.1c0,1.9,0,3.8,0,5.7c0,0.1,0,0.1,0.1,0.1c3.4,0,6.9,0,10.3,0
	c0.1,0,0.1,0,0.1-0.1C28.9,23.6,28.9,20.4,28.9,17.3z"/>
<path class="st0" d="M23,12.8c-0.8,0-1.5,0-2.3,0c-0.1,0-0.1,0-0.1-0.1c0-1.1,0-2.2,0-3.3c0-0.1,0-0.1,0.1-0.1c1.5,0,3,0,4.5,0
	c0.1,0,0.1,0,0.1,0.1c0,1.1,0,2.2,0,3.4c0,0.1,0,0.1-0.1,0.1C24.5,12.8,23.8,12.8,23,12.8z"/>
<path class="st0" d="M23.1,15.1c0.7,0,1.5,0,2.2,0c0.1,0,0.1,0,0.1,0.1c0,1.1,0,2.2,0,3.3c0,0.1,0,0.1-0.1,0.1c-1.5,0-3,0-4.5,0
	c-0.1,0-0.1,0-0.1-0.1c0-1.1,0-2.2,0-3.3c0-0.1,0-0.1,0.1-0.1C21.5,15.1,22.3,15.1,23.1,15.1z"/>
<path class="st0" d="M23,21c0.8,0,1.5,0,2.3,0c0.1,0,0.1,0,0.1,0.1c0,1.1,0,2.2,0,3.3c0,0.1,0,0.1-0.1,0.1c-1.5,0-3,0-4.5,0
	c-0.1,0-0.1,0-0.1-0.1c0-1.1,0-2.2,0-3.3c0-0.1,0-0.1,0.1-0.1C21.5,21,22.3,21,23,21z"/>
<path class="st1" d="M9,12.8c-0.8,0-1.5,0-2.3,0c-0.1,0-0.1,0-0.1-0.1c0-1.1,0-2.2,0-3.3c0-0.1,0-0.1,0.1-0.1c1.5,0,3,0,4.5,0
	c0.1,0,0.1,0,0.1,0.1c0,1.1,0,2.2,0,3.3c0,0.1,0,0.1-0.1,0.1C10.5,12.8,9.7,12.8,9,12.8z"/>
<path class="st1" d="M16,9.3c0.8,0,1.5,0,2.3,0c0.1,0,0.1,0,0.1,0.1c0,1.1,0,2.2,0,3.3c0,0.1,0,0.1-0.1,0.1c-1.5,0-3,0-4.5,0
	c-0.1,0-0.1,0-0.1-0.1c0-1.1,0-2.2,0-3.3c0-0.1,0-0.1,0.1-0.1C14.5,9.3,15.2,9.3,16,9.3z"/>
<path class="st1" d="M9,18.7c-0.8,0-1.5,0-2.3,0c-0.1,0-0.1,0-0.1-0.1c0-1.1,0-2.2,0-3.3c0-0.1,0-0.1,0.1-0.1c1.5,0,3,0,4.5,0
	c0.1,0,0.1,0,0.1,0.1c0,1.1,0,2.2,0,3.3c0,0.1,0,0.1-0.1,0.1C10.5,18.7,9.7,18.7,9,18.7z"/>
<path class="st1" d="M16,15.1c0.7,0,1.5,0,2.2,0c0.1,0,0.1,0,0.1,0.1c0,1.1,0,2.2,0,3.3c0,0.1,0,0.1-0.1,0.1c-1.5,0-3,0-4.5,0
	c-0.1,0-0.1,0-0.1-0.1c0-1.1,0-2.2,0-3.3c0-0.1,0-0.1,0.1-0.1C14.5,15.1,15.3,15.1,16,15.1z"/>
<path class="st0" d="M9,21c0.7,0,1.5,0,2.2,0c0.1,0,0.1,0,0.1,0.1c0,1.1,0,2.2,0,3.3c0,0.1,0,0.1-0.1,0.1c-1.5,0-3,0-4.5,0
	c-0.1,0-0.1,0-0.1-0.1c0-1.1,0-2.2,0-3.3c0-0.1,0-0.1,0.1-0.1C7.4,21,8.2,21,9,21z"/>
</svg>
