<?xml version="1.0" encoding="utf-8"?>
<!-- Generator: Adobe Illustrator 22.1.0, SVG Export Plug-In . SVG Version: 6.00 Build 0)  -->
<svg version="1.1" id="Layer_1" xmlns="http://www.w3.org/2000/svg" xmlns:xlink="http://www.w3.org/1999/xlink" x="0px" y="0px"
	 viewBox="0 0 32 32" style="enable-background:new 0 0 32 32;" xml:space="preserve">
<style type="text/css">
	.st0{fill:#020202;}
</style>
<path class="st0" d="M6.8,18.3c-0.1-0.2-0.2-0.5-0.4-0.7c0-0.1,0-0.1-0.1-0.1C6.2,17.2,6.1,17,6,16.8C6,16.7,6,16.7,6,16.6
	c-0.1-0.2-0.2-0.5-0.3-0.7c0-0.1,0-0.2-0.1-0.3c-0.1-0.2-0.2-0.4-0.2-0.6c0-0.1,0-0.2-0.1-0.2c-0.1-0.3-0.1-0.5-0.2-0.8
	C5,14,5,13.9,5,13.9c-0.1-0.3-0.1-0.5-0.2-0.8c0-0.1,0-0.2-0.1-0.3c0-0.3-0.1-0.5-0.1-0.8c0-0.1,0-0.2,0-0.3c0-0.3,0-0.6,0.1-1
	c0-0.1,0-0.2,0-0.3C4.8,10,4.8,9.6,4.9,9.2C5,9.1,5,9,5,8.8c0.2-0.5,0.3-0.9,0.5-1.4c0.1-0.2,0.2-0.4,0.2-0.6c0.5-0.9,1-1.7,1.6-2.5
	c0.5-0.5,1-1,1.5-1.5c0.8-0.6,1.6-1.1,2.5-1.6c0.2-0.1,0.4-0.1,0.5-0.2c1.6-0.6,3.3-0.9,5-0.8C17.9,0.4,19,0.6,20.1,1
	c0,0,0.1,0,0.1,0c0,0.1,0.1,0.1,0.2,0.1c0.2,0.1,0.5,0.2,0.7,0.3c0,0.1,0.1,0.1,0.2,0.1c0.2,0.1,0.4,0.2,0.6,0.3C22,2,22,2,22.1,2
	c0.2,0.1,0.3,0.2,0.5,0.3c0,0.1,0.1,0.1,0.2,0.1c0.2,0.1,0.4,0.3,0.5,0.4c0.1,0.1,0.2,0.1,0.2,0.2c0.1,0.1,0.3,0.2,0.4,0.4
	c0.1,0.1,0.2,0.2,0.2,0.2c0.1,0.1,0.2,0.3,0.4,0.4c0,0.1,0.1,0.1,0.2,0.2c0.1,0.2,0.3,0.3,0.4,0.5c0.1,0.1,0.1,0.2,0.2,0.3
	c0.1,0.2,0.2,0.3,0.3,0.5c0.1,0.1,0.1,0.2,0.2,0.3c0.1,0.2,0.2,0.4,0.3,0.6c0,0.1,0.1,0.2,0.1,0.3c0.1,0.2,0.2,0.4,0.3,0.6
	c0,0.1,0,0.2,0.1,0.3c0.1,0.2,0.2,0.5,0.2,0.7c0,0.1,0,0.1,0.1,0.2C27,8.5,27.1,8.8,27.1,9c0,0.1,0,0.2,0.1,0.3
	c0,0.3,0.1,0.5,0.1,0.8c0,0.1,0,0.2,0,0.3c0,0.3,0,0.5,0,0.8c0,0.1,0,0.3,0,0.4c0,0.3,0,0.6-0.1,0.9c-0.1,0.1,0,0.2,0,0.4
	c-0.1,0.4-0.2,0.8-0.3,1.3c-0.1,0.1-0.1,0.3-0.1,0.4c-0.2,0.5-0.3,0.9-0.5,1.4c-0.1,0.2-0.2,0.4-0.3,0.6c-0.3,0.6-0.6,1.2-0.9,1.8
	c-0.1,0.2-0.2,0.4-0.3,0.6c-0.4,0.7-0.8,1.4-1.2,2.1c-0.2,0.3-0.3,0.5-0.5,0.8c-0.5,0.8-1,1.6-1.5,2.4c-0.2,0.3-0.4,0.6-0.5,0.9
	c-0.7,1-1.4,2-2.1,3c-0.3,0.4-0.6,0.7-0.8,1.1c-0.5,0.7-1,1.3-1.5,2c-0.6,0.8-1.1,0.8-1.7,0.1c0-0.1-0.1-0.2-0.2-0.3
	c-0.1-0.2-0.2-0.3-0.3-0.4c0-0.1-0.1-0.2-0.2-0.3c-0.1-0.2-0.2-0.3-0.4-0.5c0-0.1-0.1-0.2-0.2-0.3c-0.1-0.2-0.2-0.4-0.4-0.5
	c0-0.1-0.1-0.1-0.1-0.2c-0.1-0.2-0.2-0.3-0.3-0.5c0-0.1-0.1-0.1-0.1-0.2c-0.1-0.2-0.3-0.4-0.4-0.6c0-0.1-0.1-0.2-0.2-0.3
	c-0.1-0.2-0.2-0.4-0.4-0.5c0,0,0-0.1-0.1-0.1c-0.1-0.2-0.2-0.4-0.4-0.6c0-0.1-0.1-0.2-0.2-0.3c-0.1-0.2-0.2-0.3-0.3-0.5
	c0-0.1-0.1-0.2-0.2-0.3c-0.1-0.2-0.2-0.4-0.4-0.6c0,0,0-0.1-0.1-0.1c-0.1-0.2-0.3-0.5-0.4-0.7c0,0,0-0.1-0.1-0.1
	c-0.1-0.2-0.2-0.4-0.4-0.6c0-0.1-0.1-0.1-0.1-0.2c-0.1-0.2-0.2-0.4-0.3-0.6c-0.1-0.1-0.1-0.2-0.2-0.3c-0.1-0.2-0.2-0.4-0.4-0.6
	c0,0,0-0.1-0.1-0.1c-0.1-0.2-0.2-0.4-0.3-0.6c0-0.1,0-0.1-0.1-0.2c-0.1-0.2-0.2-0.4-0.3-0.6c-0.1-0.1-0.1-0.2-0.2-0.3
	c-0.1-0.2-0.2-0.4-0.3-0.6c0-0.1-0.1-0.2-0.1-0.3c-0.1-0.2-0.2-0.4-0.3-0.5C6.8,18.4,6.8,18.4,6.8,18.3z M22.7,5.9
	c-0.1-0.2-0.3-0.3-0.4-0.5c0-0.1-0.1-0.1-0.2-0.2C22,5.1,21.8,5,21.7,4.9c-0.1-0.1-0.1-0.1-0.2-0.2c-0.2-0.2-0.3-0.3-0.6-0.4
	c0-0.1-0.1-0.1-0.2-0.1c-0.2-0.1-0.3-0.2-0.5-0.3c-0.1-0.1-0.2-0.1-0.3-0.1c-0.2-0.1-0.4-0.2-0.7-0.3c0-0.1-0.1-0.1-0.2-0.1
	c-0.2-0.1-0.5-0.2-0.8-0.2c-0.1,0-0.2-0.1-0.3-0.1C17.7,3.1,17.5,3,17.2,3c-0.1,0-0.2-0.1-0.3,0c-0.3,0-0.6-0.1-0.9,0
	c-0.1,0-0.2,0-0.3,0c-0.4,0-0.7,0-1.1,0.1c-0.1,0-0.3,0-0.4,0.1c-0.5,0.1-0.9,0.2-1.3,0.4c-0.2,0-0.4,0.1-0.6,0.2
	c-0.5,0.2-1,0.5-1.5,0.9C9.7,5.5,8.7,6.6,8.1,8C8,8.2,7.9,8.4,7.9,8.6C7.7,9,7.6,9.4,7.5,9.9c0,0.1-0.1,0.3-0.1,0.4
	c-0.1,0.3-0.1,0.7-0.1,1c0,0.1,0,0.2,0,0.4c0,0.3,0,0.6,0,0.9c0,0.1,0,0.2,0,0.3c0,0.3,0,0.5,0.1,0.7c0,0.1,0,0.2,0.1,0.3
	c0,0.2,0.1,0.5,0.2,0.7c0,0.1,0,0.2,0.1,0.3c0.1,0.3,0.2,0.5,0.3,0.7c0,0.1,0,0.1,0.1,0.1c0.1,0.2,0.2,0.4,0.3,0.6
	c0,0.1,0.1,0.1,0.1,0.2c0.1,0.2,0.2,0.4,0.4,0.6c0.1,0.1,0.1,0.2,0.2,0.2c0.1,0.2,0.2,0.3,0.4,0.4c0.1,0.1,0.1,0.2,0.2,0.2
	c0.1,0.2,0.3,0.3,0.4,0.4c0.1,0.1,0.1,0.1,0.2,0.2c0.2,0.1,0.3,0.3,0.5,0.4c0.1,0.1,0.2,0.1,0.2,0.2c0.2,0.1,0.4,0.3,0.6,0.3
	c0,0.1,0.1,0.1,0.1,0.1c0.2,0.2,0.5,0.3,0.7,0.3c0.1,0,0.2,0.1,0.2,0.1c0.2,0.1,0.5,0.2,0.7,0.2c0.1,0.1,0.2,0.1,0.2,0.1
	c0.2,0.1,0.5,0.1,0.7,0.2c0.1,0,0.2,0,0.3,0c0.3,0.1,0.6,0.1,0.9,0.1c0.1,0,0.2,0,0.3,0c0.3,0,0.7,0,1-0.1c0.1,0,0.3,0,0.4-0.1
	c0.4-0.1,0.8-0.1,1.3-0.3c0.2,0,0.3-0.1,0.5-0.2c1.3-0.5,2.3-1.2,3.2-2.2c0.8-0.9,1.5-1.8,1.8-2.9c0.1-0.2,0.1-0.3,0.2-0.5
	c0.2-0.4,0.2-0.8,0.3-1.2c0-0.1,0-0.3,0.1-0.4c0-0.3,0.1-0.6,0.1-1c0-0.1,0-0.2,0-0.4c0-0.3,0-0.5-0.1-0.8c0-0.1,0-0.2,0-0.3
	c0-0.3-0.1-0.5-0.2-0.8c0-0.1,0-0.2-0.1-0.2c0-0.3-0.1-0.5-0.2-0.8c0-0.1,0-0.1-0.1-0.2c-0.1-0.2-0.2-0.5-0.3-0.7
	c0-0.1,0-0.1-0.1-0.2c-0.1-0.2-0.2-0.4-0.3-0.6c0-0.1-0.1-0.2-0.2-0.3c-0.1-0.2-0.2-0.3-0.4-0.5C22.8,6.1,22.8,6,22.7,5.9z"/>
<path class="st0" d="M19.4,8.1c0.1,0.1,0.1,0.1,0.2,0.2c0.1,0.1,0.2,0.3,0.4,0.4c0,0.1,0.1,0.2,0.2,0.3c0.1,0.2,0.2,0.3,0.3,0.5
	c0,0.1,0,0.1,0.1,0.2c0.1,0.2,0.2,0.5,0.3,0.7c0,0.1,0,0.2,0.1,0.3c0,0.3,0.1,0.5,0.1,0.8c0,0.1,0,0.2,0,0.3c0,0.3-0.1,0.7-0.1,1
	c0,0.1-0.1,0.3-0.1,0.4c-0.3,0.9-0.8,1.7-1.5,2.3c-0.5,0.5-1.1,0.8-1.8,1c-0.2,0-0.3,0-0.4,0.1c-0.3,0-0.7,0.1-1,0.1
	c-0.1,0-0.3,0-0.4,0c-0.2,0-0.5-0.1-0.7-0.1c-0.1,0-0.2,0-0.3-0.1c-0.2-0.1-0.4-0.1-0.6-0.2c-0.1-0.1-0.2-0.1-0.3-0.1
	c-0.2-0.1-0.4-0.3-0.6-0.4c0-0.1-0.1-0.1-0.1-0.1c-0.1-0.1-0.3-0.3-0.4-0.4c-0.1-0.1-0.2-0.2-0.2-0.3c-0.1-0.1-0.2-0.3-0.4-0.4
	c0-0.1-0.1-0.1-0.1-0.2c-0.1-0.2-0.2-0.4-0.3-0.6c0-0.1-0.1-0.2-0.1-0.3c-0.1-0.2-0.1-0.4-0.2-0.6c0-0.1,0-0.2-0.1-0.3
	c0-0.3-0.1-0.6-0.1-0.9c0-0.1,0-0.2,0-0.3c0.1-0.4,0.1-0.7,0.2-1.1c0.1-0.2,0.1-0.3,0.2-0.5c0.5-1,1.1-1.8,2.1-2.4
	c0.2-0.1,0.4-0.2,0.6-0.3C14.4,7.1,14.5,7,14.7,7c0.4-0.1,0.7-0.1,1.1-0.2c0.1,0,0.3,0,0.4,0c0.3,0,0.5,0.1,0.8,0.1
	c0.1,0,0.2,0,0.3,0C17.4,7,17.7,7,17.9,7.1c0.1,0,0.1,0.1,0.2,0.1c0.2,0.1,0.4,0.2,0.6,0.3c0.1,0.1,0.2,0.1,0.3,0.2
	C19.1,7.8,19.3,8,19.4,8.1z"/>
</svg>
