<?xml version="1.0" encoding="utf-8"?>
<!-- Generator: Adobe Illustrator 22.1.0, SVG Export Plug-In . SVG Version: 6.00 Build 0)  -->
<svg version="1.1" id="Layer_1" xmlns="http://www.w3.org/2000/svg" xmlns:xlink="http://www.w3.org/1999/xlink" x="0px" y="0px"
	 viewBox="0 0 32 32" style="enable-background:new 0 0 32 32;" xml:space="preserve">
<style type="text/css">
	.st0{fill:#030303;}
</style>
<path class="st0" d="M23.9,23.7c0-0.8,0.3-1.6,0.9-2.1c0.1-0.1,0.3-0.2,0.4-0.3c0.4-0.2,0.8-0.2,1.2-0.3c0.3,0.1,0.5,0,0.4-0.4
	c0-0.3,0-0.6,0-1c0-0.6,0-1.3,0-1.9c0-0.3,0-0.6-0.4-0.6c-0.1-0.1-0.2-0.1-0.3,0c-0.3-0.1-0.6-0.1-1,0c-0.1,0-0.2,0-0.3,0
	c-0.3-0.1-0.5-0.1-0.8,0c-0.1,0-0.2,0-0.3,0c-0.3-0.1-0.6-0.1-1,0c-0.1,0-0.2,0-0.3,0c-0.7-0.1-1.5-0.1-2.2,0c-0.1,0-0.2,0-0.3,0
	c-0.3-0.1-0.6-0.1-1,0c-0.1,0-0.2,0-0.3,0c-2.1,0-1.7-0.4-1.7,1.7c0,0.1,0,0.2,0,0.3c-0.1,0.3-0.1,0.6,0,1c0,0.1,0,0.2,0,0.3
	c-0.2,0.5,0,0.7,0.5,0.7c1.3,0,2.2,0.9,2.3,2.2c0.1,1.1,0,2.2,0,3.4c0,0.9-0.9,2.2-2.3,2.2c-0.1,0-0.3,0-0.4,0.1c0,0,0,0,0,0
	c-0.8-0.1-1.6,0-2.5-0.1c-1.5,0-2.5-1-2.6-2.5c0-0.9,0-1.8,0-2.8c0-1.5,1-2.4,2.4-2.4c0.4,0,0.5-0.1,0.5-0.5c0-1,0-2,0-3
	c0-0.4-0.1-0.5-0.5-0.5c-2.8,0-5.6,0-8.4,0c-0.8,0-0.9,0.2-0.8,1.3c0,0.1,0,0.2,0,0.3c0,0.6,0,1.2,0,1.9c0,0.3,0.1,0.5,0.5,0.5
	c1.6,0.1,2.5,1,2.5,2.6c0,0.9,0,1.7,0,2.6c0,1.6-1,2.6-2.6,2.6c-0.2,0-0.4-0.1-0.6,0.1c0,0,0,0,0,0c-0.5-0.1-1-0.1-1.5,0
	c-1.5,0.1-2.5-0.5-3.1-1.9c0-1.3,0-2.6,0-3.9C1,21.8,1.8,21,3.1,21c0.3,0,0.4-0.1,0.4-0.4c0-0.9,0-1.7,0-2.6c-0.1-1.7,1.1-3,2.8-2.8
	c0.2,0,0.4,0,0.5,0c0.1,0,0.2,0,0.3,0c0.3,0.1,0.6,0.1,1,0c0.1,0,0.2,0,0.3,0c0.3,0.1,0.5,0.1,0.8,0c0.1,0.1,0.3,0.1,0.4,0
	c0.3,0.1,0.5,0.1,0.8,0c0.1,0,0.2,0,0.3,0c0.3,0.1,0.6,0.1,1,0c0.1,0,0.2,0,0.3,0c0.3,0.1,0.6,0.1,1,0c0.1,0,0.2,0,0.3,0
	c2.5,0,2,0.5,2-2c0-0.1,0-0.2,0-0.3c0.1-0.3,0.1-0.6,0-1c0-0.1,0-0.2,0-0.3c0.1-0.3-0.1-0.4-0.3-0.4c-0.5,0.1-0.9-0.1-1.4-0.3
	c-0.1-0.1-0.2-0.1-0.3-0.2c-0.7-0.6-1-1.4-0.9-2.3c0.1-1.2-0.2-2.4,0.2-3.6c0.2-0.2,0.3-0.5,0.5-0.7c0,0,0.1-0.1,0.1-0.1
	c0.2-0.1,0.4-0.2,0.5-0.4c0.4-0.1,0.8-0.2,1.2-0.3c0,0,0,0,0,0c0.8,0.1,1.6,0.1,2.3,0c0,0,0,0,0,0c0.4,0.1,0.9,0.1,1.3,0.2
	C19.6,4.2,20,5.1,20,6.3C20,6.4,20,6.5,20,6.6c-0.1,0.3-0.1,0.6,0,1C20,7.6,20,7.7,20,7.8c0,0.4,0,0.7,0,1.1c0,1.4-1,2.3-2.4,2.4
	c-0.5,0-0.6,0.1-0.6,0.6c0,0.9,0,1.8,0,2.8c0,0.6,0.2,0.6,0.7,0.6c2.6,0,5.3,0.1,7.9,0c2-0.1,3.2,1,3.1,3c0,0.1,0,0.2,0,0.3
	c0,0.7,0,1.5,0,2.2c0,0.3,0,0.4,0.4,0.4c1.4-0.1,2.1,0.7,2.5,1.9c0,1.3,0,2.6,0,3.9c-0.5,1.4-1.5,2-3.1,1.9c-0.1,0-0.3,0-0.4,0.1
	c0,0,0,0,0,0c-0.5-0.1-1.1,0-1.6-0.1c-1.7,0-2.6-1-2.7-2.6c0-0.7,0-1.5,0-2.2C23.9,23.9,23.9,23.8,23.9,23.7z M16.9,26.8
	c0.1,0,0.2,0,0.3,0c0.8,0,0.9-0.1,0.9-0.9c0-0.4,0-0.9,0-1.3c0-0.3,0-0.6,0-0.9c0-0.8-0.3-0.9-1.1-0.7l0,0c-0.5-0.2-1.1-0.1-1.7-0.1
	c-1.2,0-1.3,0-1.2,1.3c0,0.1,0,0.2,0,0.3c0,0.3-0.1,0.7,0,1c0,0.4-0.2,0.9,0.2,1.2c0.1,0.2,0.2,0.1,0.4,0.1c0.3,0,0.5,0,0.8,0
	c0.1,0,0.2,0,0.3,0C16.2,26.8,16.6,26.8,16.9,26.8z M6.3,24.3c0-0.5,0.4-1-0.4-1.3c-0.4-0.1-0.7-0.1-1.1,0l0,0C4.3,22.8,3.6,23,3,23
	c-0.3,0-0.5,0.3-0.4,0.6c0,1,0,1.9,0,2.9c0.2,0.6,0.7,0.4,1.1,0.4c0.1,0,0.2,0,0.3,0c0.3,0,0.5,0,0.8,0c0.1,0,0.2,0,0.3,0
	c0.3,0,0.5,0,0.8,0c0.4,0,0.6-0.2,0.6-0.6c0-0.4,0.1-0.7-0.1-1.1l0,0C6.5,24.9,6.5,24.6,6.3,24.3L6.3,24.3z M18.1,6.7
	c0-0.1,0-0.2,0-0.3c0.1-0.4,0.1-0.8-0.5-0.9c-0.1,0-0.2,0-0.3,0c-0.3,0-0.6,0-1,0c-0.1,0-0.2,0-0.3,0c-0.3,0-0.6,0-1,0
	c-0.1,0-0.2,0-0.3,0c-0.5,0-0.7,0.2-0.7,0.7c0,0.8,0,1.7,0,2.5c0,0.5,0.3,0.8,0.8,0.6c0.1,0.1,0.3,0.1,0.4,0c0.7,0,1.4,0,2.1,0
	c0.5,0,0.7-0.2,0.7-0.7C18.1,8,18.1,7.4,18.1,6.7z M29.7,24.1c0-0.1,0-0.3,0-0.4c0.1-0.5-0.1-0.7-0.6-0.7c-0.9,0-1.7,0-2.6,0
	c-0.3,0-0.6,0.1-0.6,0.5c0,0.5-0.1,1.1,0.1,1.6l0,0c-0.3,1.6-0.1,1.8,1.1,1.8c0.3,0,0.6,0,0.8,0c0.1,0,0.2,0,0.3,0c0.3,0,0.6,0,1,0
	c0.5,0.1,0.6-0.3,0.7-0.7C29.7,25.5,29.7,24.8,29.7,24.1z"/>
</svg>
