<?xml version="1.0" encoding="utf-8"?>
<!-- Generator: Adobe Illustrator 22.1.0, SVG Export Plug-In . SVG Version: 6.00 Build 0)  -->
<svg version="1.1" id="Layer_1" xmlns="http://www.w3.org/2000/svg" xmlns:xlink="http://www.w3.org/1999/xlink" x="0px" y="0px"
	 viewBox="0 0 32 32" style="enable-background:new 0 0 32 32;" xml:space="preserve">
<style type="text/css">
	.st0{fill:#060406;}
	.st1{fill:#CBCACB;}
</style>
<path class="st0" d="M19.5,17.5c0.4-0.1,0.6,0.1,0.9,0.3c0.8,0.5,1.6,1.1,2.3,1.8c0.9,0.8,2,1.1,3.2,1.3c0.9,0.2,1.8,0.2,2.7,0.4
	c0.8,0.2,1.3,0.7,1.4,1.6c0.2,2.2,0.6,4.3,1.1,6.4c0.2,0.7-0.1,1-0.7,1.3c-1.4,0.5-2.8,0.7-4.2,0.8c-6.2,0.7-12.5,0.7-18.7,0.3
	c-1.7-0.1-3.5-0.3-5.1-0.8c-0.3-0.1-0.6-0.2-1-0.4C1,30.3,0.9,30,1,29.6c0.4-2.1,0.7-4.2,0.9-6.3c0.1-1.1,0.7-1.7,1.7-2
	c1-0.3,2-0.5,3-0.7c1.3-0.3,2.6-0.8,3.6-1.8c0.6-0.6,1.2-1.2,2-1.4c-0.7,2.3-0.9,4.8-0.5,7.2c0.3,2.5,1.3,4.7,2.7,6.8
	c0.2-0.1,0.2-0.2,0.2-0.4c0-1.3,0-2.5,0.1-3.8c0.2-1.9,0.5-3.9,0.9-5.8c0.1-0.3,0-0.5-0.2-0.7c-0.3-0.2-0.3,0.1-0.5,0.2
	c-0.1,0-0.2,0.1-0.3,0c0.3-0.5,0.5-1,0.9-1.4c0.2-0.4,0.1-0.5-0.2-0.7c-0.9-0.5-1.8-1-2.7-1.5c0.5-0.4,0.6-0.9,0.3-1.4
	c-0.8-1-1-2.2-1.4-3.4c-0.1-0.4-0.2-0.6-0.6-0.8C9.5,11,9.2,9.6,10,8.6c0.1-0.2,0.1-0.4,0-0.6c-0.3-1.4-0.2-2.9,0.2-4.3
	c0.2-0.6,0.3-1.2,1-1.3c0.1,0,0.1-0.1,0.1-0.1c0.9-1.9,2.7-2.1,4.5-2.2c3-0.1,5,2.2,5.1,4.9c0,1,0.2,1.9,0,2.9c0,0.1,0,0.3,0.1,0.4
	c0.8,1,0.7,2.4-0.3,3.1c-0.3,0.2-0.5,0.5-0.6,0.9c-0.2,0.9-0.3,1.8-0.6,2.7c-0.2,0.6-0.7,1-0.6,1.7c0,0.2,0,0.4,0.3,0.4
	c-0.1,0.3-0.3,0.3-0.5,0.4c-0.7,0.4-1.4,0.8-2.2,1.1C16,18.8,16,19,16.3,19.3c0.3,0.4,0.7,0.8,0.8,1.4c-0.3,0-0.3-0.4-0.6-0.2
	c-0.2,0.2-0.3,0.4-0.2,0.7c0.6,2.9,1,5.7,1.1,8.6c0,0.5,0,1,0,1.5c2.3-3.5,3.5-7.3,2.6-11.5C19.8,19.1,20.1,18.2,19.5,17.5z
	 M14.4,31.1c0,0.1,0,0.2,0,0.2c0,0,0,0.1,0.1,0.1c0-0.1,0.1-0.1,0.1-0.2C14.5,31.2,14.4,31.2,14.4,31.1z"/>
<path class="st0" d="M12.3,17.1c0,0.1,0,0.2-0.2,0.2C12.1,17.1,12.2,17.2,12.3,17.1z"/>
<path class="st1" d="M14.4,31.1c0.1,0.1,0.1,0.1,0.1,0.2c0,0.1-0.1,0.1-0.1,0.2c0,0-0.1-0.1-0.1-0.1C14.3,31.3,14.3,31.2,14.4,31.1z
	"/>
</svg>
