<?xml version="1.0" encoding="utf-8"?>
<!-- Generator: Adobe Illustrator 22.1.0, SVG Export Plug-In . SVG Version: 6.00 Build 0)  -->
<svg version="1.1" id="Layer_1" xmlns="http://www.w3.org/2000/svg" xmlns:xlink="http://www.w3.org/1999/xlink" x="0px" y="0px"
	 viewBox="0 0 32 32" style="enable-background:new 0 0 32 32;" xml:space="preserve">
<style type="text/css">
	.st0{fill:#333333;}
	.st1{fill:#303030;}
	.st2{fill:#181818;}
	.st3{fill:#1E1E1E;}
	.st4{fill:#313131;}
	.st5{fill:#4A4A4A;}
	.st6{fill:#424242;}
</style>
<path class="st0" d="M7.1,31.4c-0.1-0.3-0.4-0.2-0.6-0.3c-1.9-0.8-3-2.3-3.1-4.4c0-5.2,0-10.4,0-15.6c0-2.5,2-4.5,4.6-4.7
	c1.3-0.1,2.6,0,3.9,0c0.3,0,0.4,0.1,0.4,0.4c-0.1,1.7,1.3,3.5,3.6,3.3c0.4,0,0.8,0,1.2,0c1.6-0.2,2.7-1.5,2.7-3.1
	c0-0.4,0.1-0.6,0.6-0.6c1.2,0,2.4,0,3.6,0c2.8,0.1,4.8,2.1,4.8,4.9c0,5,0,9.9,0,14.9c0,2.7-1.3,4.3-3.8,5.1c0,0,0,0.1-0.1,0.1
	C19,31.4,13,31.4,7.1,31.4z M15,12.5c0-0.1-0.1-0.1-0.1,0c-1.6-0.2-3.1-0.9-3.8-2.3c-0.6-1.3-1.5-1.5-2.7-1.3c-0.1,0-0.1,0-0.2,0
	c-1.3,0.1-2.3,1-2.3,2.4c0,5.1,0,10.3,0,15.4c0,1.4,1,2.4,2.4,2.4c5.2,0,10.5,0,15.7,0c1.4,0,2.4-1,2.4-2.4c0-5.1,0-10.3,0-15.4
	c0-1.4-1-2.3-2.4-2.4c-0.5,0-1,0-1.5,0c-0.4,0-0.6,0.1-0.8,0.5c-0.9,1.8-2.3,2.9-4.3,3.1c0-0.1-0.1-0.1-0.1,0
	C16.5,12.6,15.8,12.6,15,12.5z"/>
<path class="st1" d="M16.9,8.6c-0.5,0-1,0-1.5,0c-0.1-0.1-0.2-0.1-0.4-0.1c-0.7-0.1-1.1-0.7-1.1-1.3c-0.1-1.7-0.1-3.3,0-5
	c0,0,0.1,0,0.1,0c0,0,0-0.1,0-0.1C14,1.4,14.6,1,15.1,0.8c0.7,0,1.4,0,2,0c0.6,0.3,1.1,0.6,1.2,1.4c0,0,0,0,0,0c0,0,0,0.1,0.1,0.1
	c0.1,1.7,0.1,3.3,0,5c0,0.7-0.4,1.2-1.1,1.3C17.1,8.5,17,8.5,16.9,8.6z"/>
<path class="st2" d="M15,8.5c0.1,0,0.3,0,0.4,0.1C15.3,8.7,15.1,8.7,15,8.5z"/>
<path class="st2" d="M16.9,8.6c0.1-0.1,0.2-0.1,0.4-0.1C17.2,8.7,17,8.7,16.9,8.6z"/>
<path class="st3" d="M13.9,2.1C13.9,2.1,14,2.2,13.9,2.1c0,0.1,0,0.1,0,0.1C13.9,2.2,13.9,2.2,13.9,2.1z"/>
<path class="st3" d="M18.4,2.2C18.4,2.2,18.4,2.2,18.4,2.2c-0.1-0.1,0-0.1,0-0.1C18.4,2.2,18.4,2.2,18.4,2.2z"/>
<path class="st3" d="M15,12.5L15,12.5l-0.1,0C14.9,12.4,15,12.4,15,12.5z"/>
<path class="st3" d="M17.5,12.5L17.5,12.5l-0.1,0C17.4,12.4,17.4,12.4,17.5,12.5z"/>
<path class="st4" d="M19.5,27c-0.1,0-0.3,0-0.4,0.1c-0.5,0-0.9-0.3-1.4,0.1c-1,0.1-2.1,0.1-3.1,0c-0.4-0.4-0.9-0.1-1.4-0.1
	c-0.1,0-0.3,0-0.4-0.1c-0.1-0.2-0.2-0.2-0.4-0.1c-1.7-0.4-2.4-1.6-1.8-3.2c0.4-1,1.1-1.8,2-2.5c0.2-0.2,0.4-0.1,0.6,0
	c1.9,1.4,3.9,1.4,5.8,0c0.2-0.1,0.3-0.2,0.5,0c1,0.7,1.8,1.6,2.1,2.8c0.4,1.5-0.3,2.6-1.7,2.9C19.8,26.8,19.6,26.7,19.5,27z"/>
<path class="st4" d="M13,16.8c0.3-1.6,1.6-2.6,3.2-2.6c1.6,0,2.9,1,3.2,2.6c-0.2,0.4-0.2,0.8,0,1.2c0,0.1,0,0.2,0,0.3
	C19,18.5,19,18.8,19,19.1c-0.6,1.1-1.6,1.7-2.8,1.7c-1.2,0-2.2-0.5-2.8-1.7c0-0.3,0-0.6-0.3-0.8c0-0.1,0-0.2,0-0.3
	C13.2,17.7,13.2,17.2,13,16.8z"/>
<path class="st5" d="M13.2,27c0.5,0,0.9-0.3,1.4,0.1C14.1,27.1,13.7,27.1,13.2,27z"/>
<path class="st5" d="M17.7,27.1c0.4-0.4,0.9-0.1,1.4-0.1C18.6,27.1,18.2,27.1,17.7,27.1z"/>
<path class="st6" d="M13,16.8c0.2,0.4,0.2,0.8,0,1.2C12.8,17.7,12.8,17.2,13,16.8z"/>
<path class="st6" d="M19.4,18.1c-0.2-0.4-0.2-0.8,0-1.2C19.5,17.2,19.5,17.7,19.4,18.1z"/>
<path class="st6" d="M13,18.3c0.3,0.2,0.3,0.5,0.3,0.8C13.1,18.9,13,18.6,13,18.3z"/>
<path class="st6" d="M19,19.1c0-0.3,0-0.6,0.3-0.8C19.3,18.6,19.2,18.9,19,19.1z"/>
<path class="st5" d="M12.4,26.9c0.2-0.2,0.3-0.1,0.4,0.1C12.7,27,12.5,27,12.4,26.9z"/>
<path class="st5" d="M19.5,27c0.1-0.2,0.3-0.2,0.5-0.1C19.8,27,19.7,27,19.5,27z"/>
</svg>
