<?xml version="1.0" encoding="utf-8"?>
<!-- Generator: Adobe Illustrator 21.0.0, SVG Export Plug-In . SVG Version: 6.00 Build 0)  -->
<svg version="1.1" id="Layer_1" xmlns="http://www.w3.org/2000/svg" xmlns:xlink="http://www.w3.org/1999/xlink" x="0px" y="0px"
	 viewBox="0 0 58.5 49" style="enable-background:new 0 0 58.5 49;" xml:space="preserve">
<style type="text/css">
	.st0{fill:#FFFFFF;}
</style>
<path class="st0" d="M15.6,32h-0.2c-1.5,0-3,0.3-4,1.4C10.4,34.5,10,36,10,37.8V38c0,1.8,0.4,3.3,1.5,4.4c1.1,1,2.5,1.4,4,1.4h0.2
	c1.5,0,3-0.3,4.1-1.4c1.1-1.1,1.5-2.6,1.5-4.4v-0.2c0-1.8-0.4-3.3-1.5-4.4C18.6,32.4,17.2,32,15.6,32z M17.9,40.5
	c-0.4,0.4-1,0.6-2.2,0.6h-0.1c-1.2,0-1.9-0.3-2.2-0.6c-0.4-0.4-0.7-1.1-0.7-2.5v-0.2c0-1.4,0.3-2.2,0.7-2.5c0.4-0.4,1-0.6,2.2-0.6
	h0.1c1.2,0,1.9,0.3,2.2,0.6c0.4,0.4,0.7,1.1,0.7,2.5l0,0.2C18.5,39.4,18.2,40.1,17.9,40.5z M57,30.3v-0.1c0-2.2-0.5-4.1-1.9-5.5
	c-1.1-1.1-2.7-1.7-4.6-1.9L47.8,9.1l2.4,0.2c0,0,0,0,0,0c0.2,0,0.4-0.2,0.4-0.4l0.1-1.7c0-0.2-0.2-0.4-0.4-0.4l-5.5-0.4v-6
	c0-0.2-0.2-0.4-0.4-0.4h-1.7c-0.2,0-0.4,0.2-0.4,0.4v5.9l-40-2.8c0,0,0,0,0,0C2,3.5,1.8,3.7,1.8,3.9L1.7,5.6C1.7,5.8,1.8,6,2.1,6
	l43.1,3L48,22.7h-5.3c0,0,0,0,0,0c0,0,0,0-0.1,0c0,0-0.1,0-0.1,0c0,0,0,0,0,0c0,0-0.1,0.1-0.1,0.1c0,0,0,0,0,0l0,0c0,0,0,0,0,0
	l-4.1,6.6h2.9l2.7-4.4H48l-3.2,5.2h-9.2L32.4,22c-0.1-0.2-0.2-0.3-0.4-0.3c0,0-0.1,0-0.1,0l-1.6,0.6c-0.2,0.1-0.3,0.3-0.2,0.5
	l2.8,7.5h-0.6c-0.2,0-0.4,0.2-0.4,0.4v1.7c0,0.2,0.2,0.4,0.4,0.4h10.9l-0.9,1.5h-14c0-0.1,0-0.3,0-0.5V12.4c0-1.6-1.3-2.9-2.9-2.9
	L6.8,8.3h0c-1.6,0-2.9,1.3-2.9,2.9v11.4H2c-0.2,0-0.4,0.2-0.4,0.4v1.7c0,0.2,0.2,0.4,0.4,0.4h1.8v8.7c0,1.6,1.3,2.9,2.9,2.9h0.7
	c0,0,0.1,0,0.1,0h0.9c0.2,0,0.4-0.2,0.4-0.4v-1.7c0-0.2-0.2-0.4-0.4-0.4H7.5l0,0H6.7c-0.2,0-0.4-0.2-0.4-0.4v-8.8h12.3v0.2
	c0,2.2,0.5,4.1,1.9,5.5c1.2,1.2,3,1.8,5.1,1.9V34c0,0.2-0.2,0.4-0.4,0.4h-2.2c-0.2,0-0.4,0.2-0.4,0.4v1.7c0,0.2,0.2,0.4,0.4,0.4
	h20.2c0,0,0,0,0,0c0,0,0,0,0.1,0c0.1,0,0.3-0.1,0.3-0.2l7-11.3c1.2,0.2,2,0.6,2.5,1.1c0.6,0.6,1,1.6,1.1,3v2.2
	c0,0.2,0.2,0.4,0.4,0.4h1.8c0.2,0,0.4-0.2,0.4-0.4L57,30.3C57,30.3,57,30.3,57,30.3z M25.7,30.2C24,30.1,23,29.6,22.4,29
	c-0.7-0.7-1.1-1.8-1.1-3.7l0-0.2h1.1c0.2,0,0.4-0.2,0.4-0.4v-1.7c0-0.2-0.2-0.4-0.4-0.4H6.4V11.3c0-0.2,0.1-0.3,0.3-0.4l18.6,1.2h0
	c0.2,0,0.4,0.2,0.4,0.4L25.7,30.2L25.7,30.2z M51.8,34.9L51.8,34.9C51.8,34.9,51.8,34.9,51.8,34.9h-0.1c-1.1,0-2.2,0.2-3.1,1.1
	c-0.8,0.8-1.1,2-1.1,3.3l0,0.1c0,1.3,0.3,2.4,1.1,3.3c0.8,0.8,1.9,1.1,3,1.1h0.1c1.1,0,2.2-0.2,3.1-1.1c0.8-0.8,1.1-2,1.1-3.3v-0.1
	c0-1.3-0.3-2.4-1.1-3.3C54.1,35.2,52.9,34.9,51.8,34.9z M53,40.8c-0.1,0.1-0.5,0.3-1.2,0.3h-0.1c-0.8,0-1.1-0.2-1.2-0.3
	c-0.1-0.1-0.3-0.5-0.3-1.4v-0.1c0-0.9,0.2-1.3,0.3-1.4c0.1-0.1,0.4-0.3,1.2-0.3h0.1c0.8,0,1.1,0.2,1.2,0.3c0.1,0.1,0.3,0.5,0.3,1.4
	l0,0.1C53.4,40.3,53.2,40.7,53,40.8z"/>
</svg>
